<svg width="35" height="35" viewBox="0 0 35 35" fill="none" xmlns="http://www.w3.org/2000/svg">
<path d="M17.8635 26.6725C17.7432 26.7454 17.622 26.8169 17.4999 26.8867C17.3776 26.8171 17.2562 26.7459 17.1358 26.6732C15.445 25.6419 13.8644 24.4303 12.4203 23.0582C9.84019 20.5871 7.27273 17.0684 7.27273 12.8412C7.27273 9.94863 9.64658 7.63645 12.5347 7.63646L12.5397 7.63644C13.3371 7.63243 14.1261 7.81293 14.8483 8.16564C15.5706 8.51841 16.2084 9.03491 16.713 9.67859L17.5 10.6824L18.287 9.67859C18.7917 9.03478 19.4297 8.5182 20.1521 8.16543C20.8745 7.8127 21.6637 7.63228 22.4613 7.63645H22.4665C25.3533 7.63645 27.7273 9.94851 27.7273 12.8412C27.7273 17.0694 25.1599 20.588 22.5804 23.0564C21.1359 24.429 19.5548 25.6409 17.8635 26.6725ZM17.4851 27.0818L17.4867 27.0846L17.1142 27.7698L17.0947 27.8057L17.4851 27.0818Z" stroke="#FD0404" stroke-width="2"/>
</svg>
