<svg width="37" height="37" viewBox="0 0 37 37" fill="none" xmlns="http://www.w3.org/2000/svg">
<path d="M11.7317 28.8781H27.0732" stroke="#FF3131" stroke-width="2" stroke-linecap="round" stroke-linejoin="round"/>
<path d="M19.4024 18.9512C21.1469 18.9512 22.561 17.3351 22.561 15.3415C22.561 13.3478 21.1469 11.7317 19.4024 11.7317C17.658 11.7317 16.2439 13.3478 16.2439 15.3415C16.2439 17.3351 17.658 18.9512 19.4024 18.9512Z" stroke="#FF3131" stroke-width="2" stroke-linecap="round" stroke-linejoin="round"/>
<path d="M27.9756 15.5497C27.9756 23.0469 19.4024 28.878 19.4024 28.878C19.4024 28.878 10.8293 23.0469 10.8293 15.5497C10.8293 13.3404 11.7325 11.2216 13.3403 9.65937C14.9481 8.09716 17.1287 7.21951 19.4024 7.21951C21.6762 7.21951 23.8568 8.09716 25.4646 9.65937C27.0724 11.2216 27.9756 13.3404 27.9756 15.5497Z" stroke="#FF3131" stroke-width="2" stroke-linecap="round" stroke-linejoin="round"/>
</svg>
